<svg class="kengumedia-logo" xmlns="http://www.w3.org/2000/svg" viewBox="0 0 347.9 69.5"><path d="M35.3 4.7c-16.6 0-30 13.4-30 30s13.4 30 30 30 30-13.4 30-30c0-16.5-13.4-30-30-30zm0 43.9c-1.6 0-2.8-1.2-2.8-2.8 0-1.6 1.3-2.8 2.8-2.8s2.8 1.2 2.8 2.8c0 1.6-1.2 2.8-2.8 2.8zm8.1-1.4c.1-.4.1-.9.1-1.4 0-4.6-3.7-8.3-8.3-8.3-4.6 0-8.3 3.7-8.3 8.3 0 .5 0 .9.1 1.4-2-.7-3.8-1.6-5.6-2.8.9-7 6.8-12.4 13.9-12.4s13 5.5 13.7 12.4c-1.7 1.1-3.6 2.1-5.6 2.8zm10.4-7c-2.4-8-9.7-13.8-18.5-13.8s-16.1 5.8-18.5 13.8c-1.5-1.6-2.7-3.5-3.7-5.5 4.1-8.1 12.5-13.8 22.2-13.8s18.1 5.6 22.2 13.8c-1 2-2.3 3.8-3.7 5.5zm41.4-9.8c0 1.2-.4 2.2-1.2 3-.8.8-1.8 1.2-2.9 1.2H87V18h-8.2v33.1H87v-8.3h4.1c1.1 0 2.1.4 2.9 1.2s1.2 1.8 1.2 2.9V51h8.3v-8.3c0-1.1-.4-2.1-1.2-2.9s-1.8-1.2-2.9-1.2c1.1 0 2.1-.4 2.9-1.2.8-.8 1.2-1.8 1.2-3V18h-8.3v12.4zm176 12.5H267c-1.2 0-2.2-.4-3-1.2s-1.2-1.8-1.2-3c0-1.1.4-2.1 1.2-2.9.8-.8 1.8-1.2 3-1.2 1.1 0 2.1.4 2.9 1.2s1.2 1.8 1.2 2.9v4.1c2.2 0 4.2-.8 5.8-2.4 1.6-1.6 2.5-3.6 2.5-5.9 0-2.2-.8-4.2-2.5-5.8-1.6-1.6-3.5-2.5-5.8-2.5h-8.2v.1c-2.3 0-4.3.8-5.9 2.5-1.6 1.6-2.4 3.5-2.4 5.8v8.3c0 2.3.8 4.3 2.4 5.9 1.6 1.6 3.6 2.4 5.9 2.4h16.6c0-2.2-.8-4.2-2.5-5.8-1.6-1.6-3.5-2.5-5.8-2.5zm26.5-16.6h-8.3c-2.3 0-4.3.8-5.9 2.5-1.6 1.6-2.4 3.5-2.4 5.8v8.3c0 2.3.8 4.3 2.4 5.9 1.6 1.6 3.6 2.4 5.9 2.4H306V18h-8.3v8.3zm0 16.6h-4.1c-1.2 0-2.2-.4-3-1.2s-1.2-1.8-1.2-3c0-1.1.4-2.1 1.2-2.9.8-.8 1.8-1.2 3-1.2h4.1v8.3zm11.1-15.4c-.8.8-1.2 1.8-1.2 3v20.7h8.3V26.3h-4.1c-1.2 0-2.2.4-3 1.2zM201.5 42.9h-4.1c-1.2 0-2.2-.4-3-1.2-.8-.8-1.2-1.8-1.2-3V26.3h-8.3v16.6c0 2.3.8 4.3 2.4 5.9 1.6 1.6 3.6 2.4 5.9 2.4h16.6V26.3h-8.3v16.6zm138.6-14.1c-1.6-1.6-3.5-2.5-5.8-2.5H326c-2.3 0-4.3.8-5.9 2.5-1.6 1.6-2.4 3.5-2.4 5.8v8.3c0 2.3.8 4.3 2.4 5.9 1.6 1.6 3.6 2.4 5.9 2.4h16.6V34.6c0-2.2-.8-4.2-2.5-5.8zm-5.9 14h-4.1c-1.2 0-2.2-.4-3-1.2-.8-.8-1.2-1.8-1.2-3 0-1.1.4-2.1 1.2-2.9.8-.7 1.8-1.1 3-1.1 1.1 0 2.1.4 2.9 1.2s1.2 1.8 1.2 2.9v4.1zm-89.7-16.5h-33v24.9h8.3V34.6h4.1c1.1 0 2.1.4 2.9 1.2s1.2 1.8 1.2 2.9v12.4h8.3V34.6h4.1c1.1 0 2.1.4 2.9 1.2.8.8 1.2 1.8 1.2 2.9v12.4h8.3V34.6c0-2.2-.8-4.2-2.5-5.8-1.6-1.6-3.5-2.5-5.8-2.5zm-83.7 2.5c-1.6 1.6-2.4 3.5-2.4 5.8v8.3c0 2.3.8 4.3 2.4 5.9 1.6 1.6 3.6 2.4 5.9 2.4h8.3c-2.3 0-4.3.8-5.9 2.4-1.6 1.6-2.4 3.6-2.4 5.9h8.3c2.2 0 4.2-.8 5.8-2.5 1.6-1.6 2.5-3.5 2.5-5.8V26.3h-16.6c-2.3 0-4.3.8-5.9 2.5zm10 5.8h4.1v8.3h-4.1c-1.2 0-2.2-.4-3-1.2-.8-.8-1.2-1.8-1.2-3 0-1.1.4-2.1 1.2-2.9.9-.8 1.9-1.2 3-1.2zm-22.4-8.3h-16.5v24.9h8.3V34.6h4.1c1.1 0 2.1.4 2.9 1.2s1.2 1.8 1.2 2.9v12.4h8.3V34.6c0-2.2-.8-4.2-2.5-5.8-1.6-1.6-3.5-2.5-5.8-2.5zm-20.7 14.1c1.6-1.6 2.5-3.6 2.5-5.9 0-2.2-.8-4.2-2.5-5.8-1.6-1.6-3.5-2.5-5.8-2.5h-8.3v.1c-2.3 0-4.3.8-5.9 2.5-1.6 1.6-2.4 3.5-2.4 5.8v8.3c0 2.3.8 4.3 2.4 5.9 1.6 1.6 3.6 2.4 5.9 2.4h16.6c0-2.2-.8-4.2-2.5-5.8-1.6-1.6-3.5-2.5-5.8-2.5h-4.1c-1.2 0-2.2-.4-3-1.2s-1.2-1.8-1.2-3c0-1.1.4-2.1 1.2-2.9s1.8-1.2 3-1.2c1.1 0 2.1.4 2.9 1.2s1.2 1.8 1.2 2.9v4.1c2.2 0 4.2-.8 5.8-2.4z"/></svg>
